<svg width="263" height="53" viewBox="0 0 263 53" fill="none" xmlns="http://www.w3.org/2000/svg">
<path d="M30.216 7.072V15.84H11.912V25.312H25.608V33.824H11.912V52H0.968V7.072H30.216ZM42.472 12.576C40.552 12.576 38.9733 12.0213 37.736 10.912C36.5413 9.76 35.944 8.352 35.944 6.688C35.944 4.98133 36.5413 3.57333 37.736 2.464C38.9733 1.312 40.552 0.735996 42.472 0.735996C44.3493 0.735996 45.8853 1.312 47.08 2.464C48.3173 3.57333 48.936 4.98133 48.936 6.688C48.936 8.352 48.3173 9.76 47.08 10.912C45.8853 12.0213 44.3493 12.576 42.472 12.576ZM47.912 16.288V52H36.968V16.288H47.912ZM78.603 15.904C82.7843 15.904 86.1123 17.2693 88.587 20C91.1043 22.688 92.363 26.4 92.363 31.136V52H81.483V32.608C81.483 30.2187 80.8643 28.3627 79.627 27.04C78.3897 25.7173 76.7257 25.056 74.635 25.056C72.5443 25.056 70.8803 25.7173 69.643 27.04C68.4057 28.3627 67.787 30.2187 67.787 32.608V52H56.843V16.288H67.787V21.024C68.8963 19.4453 70.3897 18.208 72.267 17.312C74.1443 16.3733 76.2563 15.904 78.603 15.904ZM98.792 34.08C98.792 30.4107 99.4747 27.1893 100.84 24.416C102.248 21.6427 104.147 19.5093 106.536 18.016C108.925 16.5227 111.592 15.776 114.536 15.776C117.053 15.776 119.251 16.288 121.128 17.312C123.048 18.336 124.52 19.68 125.544 21.344V16.288H136.488V52H125.544V46.944C124.477 48.608 122.984 49.952 121.064 50.976C119.187 52 116.989 52.512 114.472 52.512C111.571 52.512 108.925 51.7653 106.536 50.272C104.147 48.736 102.248 46.5813 100.84 43.808C99.4747 40.992 98.792 37.7493 98.792 34.08ZM125.544 34.144C125.544 31.4133 124.776 29.2587 123.24 27.68C121.747 26.1013 119.912 25.312 117.736 25.312C115.56 25.312 113.704 26.1013 112.168 27.68C110.675 29.216 109.928 31.3493 109.928 34.08C109.928 36.8107 110.675 38.9867 112.168 40.608C113.704 42.1867 115.56 42.976 117.736 42.976C119.912 42.976 121.747 42.1867 123.24 40.608C124.776 39.0293 125.544 36.8747 125.544 34.144ZM167.166 15.904C171.347 15.904 174.675 17.2693 177.15 20C179.667 22.688 180.926 26.4 180.926 31.136V52H170.046V32.608C170.046 30.2187 169.427 28.3627 168.19 27.04C166.952 25.7173 165.288 25.056 163.198 25.056C161.107 25.056 159.443 25.7173 158.206 27.04C156.968 28.3627 156.35 30.2187 156.35 32.608V52H145.406V16.288H156.35V21.024C157.459 19.4453 158.952 18.208 160.83 17.312C162.707 16.3733 164.819 15.904 167.166 15.904ZM187.355 34.144C187.355 30.432 188.101 27.1893 189.595 24.416C191.131 21.6427 193.243 19.5093 195.931 18.016C198.661 16.5227 201.776 15.776 205.275 15.776C209.755 15.776 213.488 16.9493 216.475 19.296C219.504 21.6427 221.488 24.9493 222.427 29.216H210.779C209.797 26.4853 207.899 25.12 205.083 25.12C203.077 25.12 201.477 25.9093 200.283 27.488C199.088 29.024 198.491 31.2427 198.491 34.144C198.491 37.0453 199.088 39.2853 200.283 40.864C201.477 42.4 203.077 43.168 205.083 43.168C207.899 43.168 209.797 41.8027 210.779 39.072H222.427C221.488 43.2533 219.504 46.5387 216.475 48.928C213.445 51.3173 209.712 52.512 205.275 52.512C201.776 52.512 198.661 51.7653 195.931 50.272C193.243 48.7787 191.131 46.6453 189.595 43.872C188.101 41.0987 187.355 37.856 187.355 34.144ZM262.944 33.568C262.944 34.592 262.881 35.6587 262.753 36.768H237.985C238.155 38.9867 238.859 40.6933 240.097 41.888C241.377 43.04 242.934 43.616 244.769 43.616C247.499 43.616 249.398 42.464 250.465 40.16H262.113C261.515 42.5067 260.427 44.6187 258.849 46.496C257.313 48.3733 255.371 49.8453 253.025 50.912C250.678 51.9787 248.054 52.512 245.153 52.512C241.654 52.512 238.539 51.7653 235.809 50.272C233.078 48.7787 230.945 46.6453 229.409 43.872C227.873 41.0987 227.105 37.856 227.105 34.144C227.105 30.432 227.851 27.1893 229.345 24.416C230.881 21.6427 233.014 19.5093 235.745 18.016C238.475 16.5227 241.611 15.776 245.153 15.776C248.609 15.776 251.681 16.5013 254.369 17.952C257.057 19.4027 259.147 21.472 260.641 24.16C262.177 26.848 262.944 29.984 262.944 33.568ZM251.745 30.688C251.745 28.8107 251.105 27.3173 249.825 26.208C248.545 25.0987 246.945 24.544 245.025 24.544C243.19 24.544 241.633 25.0773 240.353 26.144C239.115 27.2107 238.347 28.7253 238.049 30.688H251.745Z" fill="url(#paint0_linear_5226_8)"/>
<defs>
<linearGradient id="paint0_linear_5226_8" x1="36.2477" y1="-1.1127" x2="73.135" y2="111.226" gradientUnits="userSpaceOnUse">
<stop stop-color="#624AF2"/>
<stop offset="1" stop-color="#50DDC3"/>
</linearGradient>
</defs>
</svg>